<svg xmlns="http://www.w3.org/2000/svg" viewBox="0 0 32 32" width="32" height="32">
  <path fill="#25D366" d="M16 0a16 16 0 0 0-13.66 24.36L0 32l7.86-2.3A16 16 0 1 0 16 0z"/>
  <path fill="#fff" d="M23.5 19.16c-.4-.2-2.32-1.14-2.68-1.27-.36-.13-.62-.2-.88.2-.26.4-1 1.27-1.23 1.53-.22.26-.45.3-.84.1-.4-.2-1.66-.61-3.16-1.95-1.17-1.04-1.96-2.33-2.19-2.72-.22-.4-.02-.61.18-.81.18-.18.4-.46.6-.69.2-.23.26-.4.4-.66.13-.26.06-.49-.04-.69-.1-.2-.88-2.12-1.2-2.9-.32-.76-.64-.66-.88-.67h-.75c-.26 0-.69.1-1.05.49-.36.4-1.38 1.34-1.38 3.27 0 1.92 1.41 3.78 1.61 4.04.2.26 2.78 4.24 6.73 5.95.94.4 1.67.65 2.24.83.94.3 1.8.26 2.48.16.76-.11 2.32-.95 2.65-1.86.33-.92.33-1.7.23-1.86-.1-.16-.36-.26-.75-.46z"/>
</svg>
